<?xml version="1.0" encoding="UTF-8"?>
<mxfile host="app.diagrams.net" agent="Mozilla/5.0 (Windows NT 10.0; Win64; x64) AppleWebKit/537.36 (KHTML, like Gecko) Chrome/136.0.0.0 YaBrowser/25.6.0.0 Safari/537.36" version="27.2.0">
  <diagram name="Страница — 1" id="3ch6768eP5lHNnG6vR3K">
    <mxGraphModel dx="3679" dy="2745" grid="1" gridSize="10" guides="1" tooltips="1" connect="1" arrows="1" fold="1" page="1" pageScale="1" pageWidth="827" pageHeight="1169" math="0" shadow="0">
      <root>
        <mxCell id="0" />
        <mxCell id="1" parent="0" />
        <mxCell id="Gl9peT4MVx-f8-pcpOMs-4" value="" style="edgeStyle=orthogonalEdgeStyle;rounded=0;orthogonalLoop=1;jettySize=auto;html=1;exitX=0;exitY=0.25;exitDx=0;exitDy=0;entryX=1;entryY=0.5;entryDx=0;entryDy=0;curved=1;labelBackgroundColor=none;fontColor=default;fontSize=18;" parent="1" source="Gl9peT4MVx-f8-pcpOMs-1" target="Gl9peT4MVx-f8-pcpOMs-3" edge="1">
          <mxGeometry relative="1" as="geometry" />
        </mxCell>
        <mxCell id="Gl9peT4MVx-f8-pcpOMs-8" style="edgeStyle=orthogonalEdgeStyle;rounded=0;orthogonalLoop=1;jettySize=auto;html=1;exitX=0;exitY=0.75;exitDx=0;exitDy=0;entryX=1;entryY=0.5;entryDx=0;entryDy=0;strokeColor=none;curved=1;labelBackgroundColor=none;fontColor=default;fontSize=18;" parent="1" source="Gl9peT4MVx-f8-pcpOMs-1" target="Gl9peT4MVx-f8-pcpOMs-5" edge="1">
          <mxGeometry relative="1" as="geometry" />
        </mxCell>
        <mxCell id="Gl9peT4MVx-f8-pcpOMs-9" style="edgeStyle=orthogonalEdgeStyle;rounded=0;orthogonalLoop=1;jettySize=auto;html=1;exitX=1;exitY=0.25;exitDx=0;exitDy=0;curved=1;entryX=0;entryY=0.5;entryDx=0;entryDy=0;labelBackgroundColor=none;fontColor=default;fontSize=18;" parent="1" source="Gl9peT4MVx-f8-pcpOMs-1" target="Gl9peT4MVx-f8-pcpOMs-6" edge="1">
          <mxGeometry relative="1" as="geometry" />
        </mxCell>
        <mxCell id="Gl9peT4MVx-f8-pcpOMs-10" style="edgeStyle=orthogonalEdgeStyle;rounded=0;orthogonalLoop=1;jettySize=auto;html=1;exitX=1;exitY=0.75;exitDx=0;exitDy=0;curved=1;entryX=0;entryY=0.5;entryDx=0;entryDy=0;labelBackgroundColor=none;fontColor=default;fontSize=18;" parent="1" source="Gl9peT4MVx-f8-pcpOMs-1" target="Gl9peT4MVx-f8-pcpOMs-7" edge="1">
          <mxGeometry relative="1" as="geometry" />
        </mxCell>
        <mxCell id="Gl9peT4MVx-f8-pcpOMs-17" style="edgeStyle=orthogonalEdgeStyle;rounded=0;orthogonalLoop=1;jettySize=auto;html=1;entryX=1;entryY=0.5;entryDx=0;entryDy=0;curved=1;labelBackgroundColor=none;fontColor=default;fontSize=18;" parent="1" source="Gl9peT4MVx-f8-pcpOMs-1" target="Gl9peT4MVx-f8-pcpOMs-5" edge="1">
          <mxGeometry relative="1" as="geometry" />
        </mxCell>
        <mxCell id="Gl9peT4MVx-f8-pcpOMs-1" value="&lt;span style=&quot;font-family: &amp;quot;YS Text&amp;quot;, sans-serif; text-align: start; white-space-collapse: preserve;&quot;&gt;Безопасность данных&lt;/span&gt;" style="whiteSpace=wrap;html=1;rounded=1;labelBackgroundColor=none;fontSize=18;" parent="1" vertex="1">
          <mxGeometry x="320" y="435" width="160" height="60" as="geometry" />
        </mxCell>
        <mxCell id="zM4QcKesal0ujREZK3LC-22" style="edgeStyle=orthogonalEdgeStyle;shape=connector;curved=1;rounded=0;orthogonalLoop=1;jettySize=auto;html=1;strokeColor=default;align=center;verticalAlign=middle;fontFamily=Helvetica;fontSize=18;fontColor=default;labelBackgroundColor=none;endArrow=classic;entryX=1;entryY=0.5;entryDx=0;entryDy=0;" parent="1" source="Gl9peT4MVx-f8-pcpOMs-3" target="zM4QcKesal0ujREZK3LC-20" edge="1">
          <mxGeometry relative="1" as="geometry" />
        </mxCell>
        <mxCell id="zM4QcKesal0ujREZK3LC-23" style="edgeStyle=orthogonalEdgeStyle;shape=connector;curved=1;rounded=0;orthogonalLoop=1;jettySize=auto;html=1;entryX=1;entryY=0.5;entryDx=0;entryDy=0;strokeColor=default;align=center;verticalAlign=middle;fontFamily=Helvetica;fontSize=18;fontColor=default;labelBackgroundColor=none;endArrow=classic;" parent="1" source="Gl9peT4MVx-f8-pcpOMs-3" target="zM4QcKesal0ujREZK3LC-12" edge="1">
          <mxGeometry relative="1" as="geometry" />
        </mxCell>
        <mxCell id="zM4QcKesal0ujREZK3LC-24" style="edgeStyle=orthogonalEdgeStyle;shape=connector;curved=1;rounded=0;orthogonalLoop=1;jettySize=auto;html=1;entryX=1;entryY=0.5;entryDx=0;entryDy=0;strokeColor=default;align=center;verticalAlign=middle;fontFamily=Helvetica;fontSize=18;fontColor=default;labelBackgroundColor=none;endArrow=classic;" parent="1" source="Gl9peT4MVx-f8-pcpOMs-3" target="Gl9peT4MVx-f8-pcpOMs-14" edge="1">
          <mxGeometry relative="1" as="geometry" />
        </mxCell>
        <mxCell id="Gl9peT4MVx-f8-pcpOMs-3" value="&lt;span style=&quot;font-family: &amp;quot;YS Text&amp;quot;, sans-serif; font-style: normal; font-variant-ligatures: normal; font-variant-caps: normal; font-weight: 400; letter-spacing: normal; orphans: 2; text-align: left; text-indent: 0px; text-transform: none; widows: 2; word-spacing: 0px; -webkit-text-stroke-width: 0px; white-space: pre-line; text-decoration-thickness: initial; text-decoration-style: initial; text-decoration-color: initial; float: none; display: inline !important;&quot;&gt;публичные данные&lt;/span&gt;" style="whiteSpace=wrap;html=1;rounded=1;labelBackgroundColor=none;fontSize=18;" parent="1" vertex="1">
          <mxGeometry x="100" y="140" width="160" height="70" as="geometry" />
        </mxCell>
        <mxCell id="Gl9peT4MVx-f8-pcpOMs-20" style="edgeStyle=orthogonalEdgeStyle;rounded=0;orthogonalLoop=1;jettySize=auto;html=1;exitX=0;exitY=0.5;exitDx=0;exitDy=0;curved=1;labelBackgroundColor=none;fontColor=default;fontSize=18;entryX=1;entryY=0.5;entryDx=0;entryDy=0;" parent="1" source="Gl9peT4MVx-f8-pcpOMs-5" target="Gl9peT4MVx-f8-pcpOMs-18" edge="1">
          <mxGeometry relative="1" as="geometry" />
        </mxCell>
        <mxCell id="Gl9peT4MVx-f8-pcpOMs-21" style="edgeStyle=orthogonalEdgeStyle;rounded=0;orthogonalLoop=1;jettySize=auto;html=1;exitX=0;exitY=0.5;exitDx=0;exitDy=0;entryX=1;entryY=0.5;entryDx=0;entryDy=0;curved=1;labelBackgroundColor=none;fontColor=default;fontSize=18;" parent="1" source="Gl9peT4MVx-f8-pcpOMs-5" target="Gl9peT4MVx-f8-pcpOMs-19" edge="1">
          <mxGeometry relative="1" as="geometry" />
        </mxCell>
        <mxCell id="zM4QcKesal0ujREZK3LC-29" style="edgeStyle=orthogonalEdgeStyle;shape=connector;curved=1;rounded=0;orthogonalLoop=1;jettySize=auto;html=1;strokeColor=default;align=center;verticalAlign=middle;fontFamily=Helvetica;fontSize=18;fontColor=default;labelBackgroundColor=none;endArrow=classic;entryX=1;entryY=0.5;entryDx=0;entryDy=0;" parent="1" source="Gl9peT4MVx-f8-pcpOMs-5" target="zM4QcKesal0ujREZK3LC-25" edge="1">
          <mxGeometry relative="1" as="geometry" />
        </mxCell>
        <mxCell id="zM4QcKesal0ujREZK3LC-36" style="edgeStyle=orthogonalEdgeStyle;shape=connector;curved=1;rounded=0;orthogonalLoop=1;jettySize=auto;html=1;entryX=1;entryY=0.5;entryDx=0;entryDy=0;strokeColor=default;align=center;verticalAlign=middle;fontFamily=Helvetica;fontSize=18;fontColor=default;labelBackgroundColor=none;endArrow=classic;" parent="1" source="Gl9peT4MVx-f8-pcpOMs-5" target="zM4QcKesal0ujREZK3LC-35" edge="1">
          <mxGeometry relative="1" as="geometry" />
        </mxCell>
        <mxCell id="Gl9peT4MVx-f8-pcpOMs-5" value="&lt;span style=&quot;font-family: &amp;quot;YS Text&amp;quot;, sans-serif; text-align: left; white-space-collapse: preserve-breaks;&quot;&gt;внутренние данные&lt;/span&gt;" style="whiteSpace=wrap;html=1;rounded=1;labelBackgroundColor=none;fontSize=18;" parent="1" vertex="1">
          <mxGeometry x="100" y="717.5" width="160" height="70" as="geometry" />
        </mxCell>
        <mxCell id="zM4QcKesal0ujREZK3LC-2" style="edgeStyle=orthogonalEdgeStyle;rounded=0;orthogonalLoop=1;jettySize=auto;html=1;labelBackgroundColor=none;fontColor=default;fontSize=18;entryX=0;entryY=0.5;entryDx=0;entryDy=0;curved=1;" parent="1" source="Gl9peT4MVx-f8-pcpOMs-6" target="zM4QcKesal0ujREZK3LC-1" edge="1">
          <mxGeometry relative="1" as="geometry" />
        </mxCell>
        <mxCell id="zM4QcKesal0ujREZK3LC-42" style="edgeStyle=orthogonalEdgeStyle;shape=connector;curved=1;rounded=0;orthogonalLoop=1;jettySize=auto;html=1;entryX=0;entryY=0.5;entryDx=0;entryDy=0;strokeColor=default;align=center;verticalAlign=middle;fontFamily=Helvetica;fontSize=18;fontColor=default;labelBackgroundColor=none;endArrow=classic;" parent="1" source="Gl9peT4MVx-f8-pcpOMs-6" target="zM4QcKesal0ujREZK3LC-41" edge="1">
          <mxGeometry relative="1" as="geometry" />
        </mxCell>
        <mxCell id="zM4QcKesal0ujREZK3LC-46" style="edgeStyle=orthogonalEdgeStyle;shape=connector;curved=1;rounded=0;orthogonalLoop=1;jettySize=auto;html=1;entryX=0;entryY=0.5;entryDx=0;entryDy=0;strokeColor=default;align=center;verticalAlign=middle;fontFamily=Helvetica;fontSize=18;fontColor=default;labelBackgroundColor=none;endArrow=classic;" parent="1" source="Gl9peT4MVx-f8-pcpOMs-6" target="zM4QcKesal0ujREZK3LC-44" edge="1">
          <mxGeometry relative="1" as="geometry" />
        </mxCell>
        <mxCell id="zM4QcKesal0ujREZK3LC-50" style="edgeStyle=orthogonalEdgeStyle;shape=connector;curved=1;rounded=0;orthogonalLoop=1;jettySize=auto;html=1;entryX=0;entryY=0.5;entryDx=0;entryDy=0;strokeColor=default;align=center;verticalAlign=middle;fontFamily=Helvetica;fontSize=18;fontColor=default;labelBackgroundColor=none;endArrow=classic;" parent="1" source="Gl9peT4MVx-f8-pcpOMs-6" target="zM4QcKesal0ujREZK3LC-48" edge="1">
          <mxGeometry relative="1" as="geometry" />
        </mxCell>
        <mxCell id="zM4QcKesal0ujREZK3LC-53" style="edgeStyle=orthogonalEdgeStyle;shape=connector;curved=1;rounded=0;orthogonalLoop=1;jettySize=auto;html=1;entryX=0;entryY=0.5;entryDx=0;entryDy=0;strokeColor=default;align=center;verticalAlign=middle;fontFamily=Helvetica;fontSize=18;fontColor=default;labelBackgroundColor=none;endArrow=classic;" parent="1" source="Gl9peT4MVx-f8-pcpOMs-6" target="zM4QcKesal0ujREZK3LC-52" edge="1">
          <mxGeometry relative="1" as="geometry" />
        </mxCell>
        <mxCell id="Gl9peT4MVx-f8-pcpOMs-6" value="&lt;span style=&quot;font-family: &amp;quot;YS Text&amp;quot;, sans-serif; text-align: left; white-space-collapse: preserve-breaks;&quot;&gt;конфиденциальные данные&lt;/span&gt;" style="whiteSpace=wrap;html=1;rounded=1;labelBackgroundColor=none;fontSize=18;" parent="1" vertex="1">
          <mxGeometry x="540" y="140" width="190" height="70" as="geometry" />
        </mxCell>
        <mxCell id="zM4QcKesal0ujREZK3LC-62" style="edgeStyle=orthogonalEdgeStyle;shape=connector;curved=1;rounded=0;orthogonalLoop=1;jettySize=auto;html=1;entryX=0;entryY=0.5;entryDx=0;entryDy=0;strokeColor=default;align=center;verticalAlign=middle;fontFamily=Helvetica;fontSize=18;fontColor=default;labelBackgroundColor=none;endArrow=classic;" parent="1" source="Gl9peT4MVx-f8-pcpOMs-7" target="zM4QcKesal0ujREZK3LC-57" edge="1">
          <mxGeometry relative="1" as="geometry" />
        </mxCell>
        <mxCell id="zM4QcKesal0ujREZK3LC-63" style="edgeStyle=orthogonalEdgeStyle;shape=connector;curved=1;rounded=0;orthogonalLoop=1;jettySize=auto;html=1;strokeColor=default;align=center;verticalAlign=middle;fontFamily=Helvetica;fontSize=18;fontColor=default;labelBackgroundColor=none;endArrow=classic;entryX=0;entryY=0.5;entryDx=0;entryDy=0;" parent="1" source="Gl9peT4MVx-f8-pcpOMs-7" target="zM4QcKesal0ujREZK3LC-58" edge="1">
          <mxGeometry relative="1" as="geometry" />
        </mxCell>
        <mxCell id="zM4QcKesal0ujREZK3LC-64" style="edgeStyle=orthogonalEdgeStyle;shape=connector;curved=1;rounded=0;orthogonalLoop=1;jettySize=auto;html=1;entryX=0;entryY=0.5;entryDx=0;entryDy=0;strokeColor=default;align=center;verticalAlign=middle;fontFamily=Helvetica;fontSize=18;fontColor=default;labelBackgroundColor=none;endArrow=classic;" parent="1" source="Gl9peT4MVx-f8-pcpOMs-7" target="zM4QcKesal0ujREZK3LC-59" edge="1">
          <mxGeometry relative="1" as="geometry" />
        </mxCell>
        <mxCell id="zM4QcKesal0ujREZK3LC-65" style="edgeStyle=orthogonalEdgeStyle;shape=connector;curved=1;rounded=0;orthogonalLoop=1;jettySize=auto;html=1;entryX=0;entryY=0.5;entryDx=0;entryDy=0;strokeColor=default;align=center;verticalAlign=middle;fontFamily=Helvetica;fontSize=18;fontColor=default;labelBackgroundColor=none;endArrow=classic;" parent="1" source="Gl9peT4MVx-f8-pcpOMs-7" target="zM4QcKesal0ujREZK3LC-61" edge="1">
          <mxGeometry relative="1" as="geometry" />
        </mxCell>
        <mxCell id="zM4QcKesal0ujREZK3LC-66" style="edgeStyle=orthogonalEdgeStyle;shape=connector;curved=1;rounded=0;orthogonalLoop=1;jettySize=auto;html=1;entryX=0;entryY=0.5;entryDx=0;entryDy=0;strokeColor=default;align=center;verticalAlign=middle;fontFamily=Helvetica;fontSize=18;fontColor=default;labelBackgroundColor=none;endArrow=classic;" parent="1" source="Gl9peT4MVx-f8-pcpOMs-7" target="zM4QcKesal0ujREZK3LC-60" edge="1">
          <mxGeometry relative="1" as="geometry" />
        </mxCell>
        <mxCell id="Gl9peT4MVx-f8-pcpOMs-7" value="&lt;span style=&quot;font-family: &amp;quot;YS Text&amp;quot;, sans-serif; text-align: left; white-space-collapse: preserve-breaks;&quot;&gt;секретные данные&lt;/span&gt;" style="whiteSpace=wrap;html=1;rounded=1;labelBackgroundColor=none;fontSize=18;" parent="1" vertex="1">
          <mxGeometry x="545" y="710" width="180" height="70" as="geometry" />
        </mxCell>
        <mxCell id="zM4QcKesal0ujREZK3LC-11" style="edgeStyle=orthogonalEdgeStyle;rounded=0;orthogonalLoop=1;jettySize=auto;html=1;curved=1;labelBackgroundColor=none;fontColor=default;fontSize=18;entryX=1;entryY=0.5;entryDx=0;entryDy=0;" parent="1" source="Gl9peT4MVx-f8-pcpOMs-14" target="zM4QcKesal0ujREZK3LC-10" edge="1">
          <mxGeometry relative="1" as="geometry" />
        </mxCell>
        <mxCell id="Gl9peT4MVx-f8-pcpOMs-14" value="&lt;span style=&quot;font-family: &amp;quot;YS Text&amp;quot;, sans-serif; text-align: left; white-space-collapse: preserve-breaks; background-color: light-dark(#ffffff, var(--ge-dark-color, #121212));&quot;&gt;&lt;font style=&quot;color: light-dark(rgb(214, 214, 214), rgb(255, 255, 255));&quot;&gt;искажение данных&lt;/font&gt;&lt;/span&gt;" style="whiteSpace=wrap;html=1;rounded=1;strokeWidth=0;labelBackgroundColor=none;textShadow=0;fontSize=18;" parent="1" vertex="1">
          <mxGeometry x="-180" y="25" width="170" height="60" as="geometry" />
        </mxCell>
        <mxCell id="zM4QcKesal0ujREZK3LC-31" style="edgeStyle=orthogonalEdgeStyle;shape=connector;curved=1;rounded=0;orthogonalLoop=1;jettySize=auto;html=1;entryX=1;entryY=0.5;entryDx=0;entryDy=0;strokeColor=default;align=center;verticalAlign=middle;fontFamily=Helvetica;fontSize=18;fontColor=default;labelBackgroundColor=none;endArrow=classic;" parent="1" source="Gl9peT4MVx-f8-pcpOMs-18" target="zM4QcKesal0ujREZK3LC-30" edge="1">
          <mxGeometry relative="1" as="geometry" />
        </mxCell>
        <mxCell id="Gl9peT4MVx-f8-pcpOMs-18" value="&lt;span style=&quot;font-family: &amp;quot;YS Text&amp;quot;, sans-serif; font-style: normal; font-variant-ligatures: normal; font-variant-caps: normal; font-weight: 400; letter-spacing: normal; orphans: 2; text-align: left; text-indent: 0px; text-transform: none; widows: 2; word-spacing: 0px; -webkit-text-stroke-width: 0px; white-space: pre-line; text-decoration-thickness: initial; text-decoration-style: initial; text-decoration-color: initial; float: none; display: inline !important;&quot;&gt;утечка данных&lt;/span&gt;" style="whiteSpace=wrap;html=1;rounded=1;labelBackgroundColor=none;strokeWidth=0;fontSize=18;" parent="1" vertex="1">
          <mxGeometry x="-155" y="650" width="120" height="60" as="geometry" />
        </mxCell>
        <mxCell id="zM4QcKesal0ujREZK3LC-33" style="edgeStyle=orthogonalEdgeStyle;shape=connector;curved=1;rounded=0;orthogonalLoop=1;jettySize=auto;html=1;strokeColor=default;align=center;verticalAlign=middle;fontFamily=Helvetica;fontSize=18;fontColor=default;labelBackgroundColor=none;endArrow=classic;entryX=1;entryY=0.5;entryDx=0;entryDy=0;" parent="1" source="Gl9peT4MVx-f8-pcpOMs-19" target="zM4QcKesal0ujREZK3LC-32" edge="1">
          <mxGeometry relative="1" as="geometry" />
        </mxCell>
        <mxCell id="Gl9peT4MVx-f8-pcpOMs-19" value="&lt;span style=&quot;font-family: &amp;quot;YS Text&amp;quot;, sans-serif; text-align: left; white-space-collapse: preserve-breaks;&quot;&gt;некачественные данные&lt;/span&gt;" style="whiteSpace=wrap;html=1;rounded=1;labelBackgroundColor=none;strokeWidth=0;fontSize=18;" parent="1" vertex="1">
          <mxGeometry x="-180" y="795" width="170" height="60" as="geometry" />
        </mxCell>
        <mxCell id="zM4QcKesal0ujREZK3LC-8" style="edgeStyle=orthogonalEdgeStyle;rounded=0;orthogonalLoop=1;jettySize=auto;html=1;labelBackgroundColor=none;fontColor=default;fontSize=18;curved=1;" parent="1" source="zM4QcKesal0ujREZK3LC-1" target="zM4QcKesal0ujREZK3LC-7" edge="1">
          <mxGeometry relative="1" as="geometry" />
        </mxCell>
        <mxCell id="zM4QcKesal0ujREZK3LC-1" value="&lt;span style=&quot;font-family: &amp;quot;YS Text&amp;quot;, sans-serif; font-style: normal; font-variant-ligatures: normal; font-variant-caps: normal; font-weight: 400; letter-spacing: normal; orphans: 2; text-align: left; text-indent: 0px; text-transform: none; widows: 2; word-spacing: 0px; -webkit-text-stroke-width: 0px; white-space: pre-line; text-decoration-thickness: initial; text-decoration-style: initial; text-decoration-color: initial; float: none; display: inline !important;&quot;&gt;утечка данных&lt;/span&gt;" style="whiteSpace=wrap;html=1;rounded=1;strokeWidth=0;labelBackgroundColor=none;fontSize=18;fontColor=default;" parent="1" vertex="1">
          <mxGeometry x="880" y="-90" width="120" height="60" as="geometry" />
        </mxCell>
        <mxCell id="zM4QcKesal0ujREZK3LC-7" value="&lt;div style=&quot;&quot;&gt;&lt;div style=&quot;&quot;&gt;&lt;span style=&quot;font-family: system-ui, ui-sans-serif, -apple-system, BlinkMacSystemFont, sans-serif, Inter, NotoSansHans; letter-spacing: 0.02em; text-wrap-mode: nowrap; color: light-dark(rgb(0, 0, 0), rgb(255, 255, 255));&quot;&gt;&amp;nbsp; &amp;nbsp;Критический риск&lt;/span&gt;&lt;/div&gt;&lt;div style=&quot;color: light-dark(rgb(0, 0, 0), rgb(255, 255, 255)); white-space-collapse: preserve-breaks;&quot;&gt;&lt;span style=&quot;font-size: 14px; font-family: &amp;quot;YS Text&amp;quot;, sans-serif; color: light-dark(rgb(0, 0, 0), rgb(255, 255, 255));&quot;&gt;&lt;span style=&quot;white-space: pre;&quot;&gt;&#x9;&lt;/span&gt;- Репутационные потери&lt;/span&gt;&lt;/div&gt;&lt;div style=&quot;color: light-dark(rgb(0, 0, 0), rgb(255, 255, 255)); white-space-collapse: preserve-breaks;&quot;&gt;&lt;span style=&quot;font-size: 14px; font-family: &amp;quot;YS Text&amp;quot;, sans-serif; color: light-dark(rgb(0, 0, 0), rgb(255, 255, 255));&quot;&gt;&lt;span style=&quot;white-space: pre;&quot;&gt;&#x9;&lt;/span&gt;- Потеря доверия клиентов&lt;br&gt;&lt;/span&gt;&lt;/div&gt;&lt;font face=&quot;YS Text, sans-serif&quot; style=&quot;&quot;&gt;&lt;div style=&quot;color: light-dark(rgb(0, 0, 0), rgb(255, 255, 255)); white-space-collapse: preserve-breaks;&quot;&gt;&lt;span style=&quot;font-size: 14px; color: light-dark(rgb(0, 0, 0), rgb(255, 255, 255));&quot;&gt;&lt;span style=&quot;white-space: pre;&quot;&gt;&#x9;&lt;/span&gt;- Судебные иски и штрафы&lt;/span&gt;&lt;/div&gt;&lt;/font&gt;&lt;/div&gt;" style="whiteSpace=wrap;html=1;rounded=1;strokeWidth=0;labelBackgroundColor=none;fontSize=18;align=left;fillColor=#f8cecc;strokeColor=#b85450;" parent="1" vertex="1">
          <mxGeometry x="1158" y="-110" width="390" height="100" as="geometry" />
        </mxCell>
        <mxCell id="zM4QcKesal0ujREZK3LC-10" value="&lt;div style=&quot;&quot;&gt;&lt;span style=&quot;color: light-dark(rgb(247, 248, 252), rgb(240, 240, 240)); letter-spacing: -0.28px; font-family: system-ui, ui-sans-serif, -apple-system, BlinkMacSystemFont, sans-serif, Inter, NotoSansHans; text-wrap-mode: nowrap; background-color: transparent;&quot;&gt;&amp;nbsp; &amp;nbsp;Значительно&lt;/span&gt;&lt;/div&gt;&lt;span style=&quot;font-family: system-ui, ui-sans-serif, -apple-system, BlinkMacSystemFont, sans-serif, Inter, NotoSansHans; letter-spacing: -0.28px; text-wrap-mode: nowrap;&quot;&gt;&lt;span style=&quot;letter-spacing: -0.28px;&quot;&gt;&lt;font style=&quot;color: light-dark(rgb(247, 248, 252), rgb(240, 240, 240));&quot;&gt;&lt;div style=&quot;&quot;&gt;&lt;span style=&quot;letter-spacing: -0.28px; color: light-dark(rgb(247, 248, 252), rgb(240, 240, 240)); background-color: transparent;&quot;&gt;&lt;span style=&quot;white-space: pre;&quot;&gt;&#x9;&lt;/span&gt;Ложная или изменённая информация&lt;/span&gt;&lt;/div&gt;&lt;span style=&quot;letter-spacing: -0.28px;&quot;&gt;&lt;div style=&quot;&quot;&gt;&lt;span style=&quot;letter-spacing: -0.28px; color: light-dark(rgb(247, 248, 252), rgb(240, 240, 240)); background-color: transparent;&quot;&gt;&lt;span style=&quot;white-space: pre;&quot;&gt;&#x9;&lt;/span&gt;может ввести клиентов в заблуждение&lt;/span&gt;&lt;/div&gt;&lt;div style=&quot;&quot;&gt;&lt;span style=&quot;letter-spacing: -0.28px; color: light-dark(rgb(247, 248, 252), rgb(240, 240, 240)); background-color: transparent;&quot;&gt;&lt;span style=&quot;white-space: pre;&quot;&gt;&#x9;&lt;/span&gt;и нанести ущерб репутации&lt;/span&gt;&lt;/div&gt;&lt;/span&gt;&lt;/font&gt;&lt;/span&gt;&lt;/span&gt;" style="whiteSpace=wrap;html=1;rounded=1;strokeWidth=0;labelBackgroundColor=none;textShadow=0;align=left;fontSize=18;fillColor=#e3c800;fontColor=#000000;strokeColor=#B09500;" parent="1" vertex="1">
          <mxGeometry x="-680" width="400" height="110" as="geometry" />
        </mxCell>
        <mxCell id="zM4QcKesal0ujREZK3LC-15" style="edgeStyle=orthogonalEdgeStyle;rounded=0;orthogonalLoop=1;jettySize=auto;html=1;curved=1;entryX=1;entryY=0.5;entryDx=0;entryDy=0;" parent="1" source="zM4QcKesal0ujREZK3LC-12" target="zM4QcKesal0ujREZK3LC-14" edge="1">
          <mxGeometry relative="1" as="geometry" />
        </mxCell>
        <mxCell id="zM4QcKesal0ujREZK3LC-12" value="&lt;span style=&quot;font-family: system-ui, ui-sans-serif, -apple-system, BlinkMacSystemFont, sans-serif, Inter, NotoSansHans; letter-spacing: -0.28px; text-align: start; text-wrap-mode: nowrap;&quot;&gt;&lt;font style=&quot;color: light-dark(rgb(247, 248, 252), rgb(255, 255, 255));&quot;&gt;Некачественные данные&lt;/font&gt;&lt;/span&gt;" style="whiteSpace=wrap;html=1;rounded=1;labelBackgroundColor=none;fontSize=18;strokeWidth=0;" parent="1" vertex="1">
          <mxGeometry x="-192.5" y="145" width="215" height="60" as="geometry" />
        </mxCell>
        <mxCell id="zM4QcKesal0ujREZK3LC-14" value="&lt;span style=&quot;font-family: system-ui, ui-sans-serif, -apple-system, BlinkMacSystemFont, sans-serif, Inter, NotoSansHans; letter-spacing: -0.28px; text-wrap-mode: nowrap;&quot;&gt;&lt;font style=&quot;color: light-dark(rgb(247, 248, 252), rgb(255, 255, 255));&quot;&gt;&amp;nbsp; &amp;nbsp;Значительно&lt;br&gt;&lt;span style=&quot;white-space: pre;&quot;&gt;&#x9;&lt;/span&gt;Неточности или устаревшая информация&lt;br&gt;&amp;nbsp;&lt;span style=&quot;white-space: pre;&quot;&gt;&#x9;&lt;/span&gt;могут снизить доверие к компании&lt;/font&gt;&lt;/span&gt;" style="whiteSpace=wrap;html=1;rounded=1;strokeWidth=0;labelBackgroundColor=none;textShadow=0;align=left;fontSize=18;fillColor=#e3c800;fontColor=#000000;strokeColor=#B09500;" parent="1" vertex="1">
          <mxGeometry x="-680" y="120" width="400" height="110" as="geometry" />
        </mxCell>
        <mxCell id="zM4QcKesal0ujREZK3LC-18" value="&lt;font style=&quot;color: light-dark(rgb(0, 0, 0), rgb(240, 240, 240));&quot;&gt;&lt;span style=&quot;font-family: system-ui, ui-sans-serif, -apple-system, BlinkMacSystemFont, sans-serif, Inter, NotoSansHans; letter-spacing: -0.28px; text-wrap-mode: nowrap;&quot;&gt;&lt;font style=&quot;&quot;&gt;&amp;nbsp; &amp;nbsp;Незначительно&lt;br&gt;&lt;/font&gt;&lt;/span&gt;&lt;span style=&quot;font-family: system-ui, ui-sans-serif, -apple-system, BlinkMacSystemFont, sans-serif, Inter, NotoSansHans; font-size: 14px; letter-spacing: -0.28px; text-wrap-mode: nowrap;&quot;&gt;&lt;span style=&quot;white-space: pre;&quot;&gt;&#x9;&lt;/span&gt;Данные уже считаются как доступные общественности, &lt;br&gt;&lt;span style=&quot;white-space: pre;&quot;&gt;&#x9;&lt;/span&gt;утечка не представляет угрозы&lt;/span&gt;&lt;/font&gt;" style="whiteSpace=wrap;html=1;rounded=1;strokeWidth=0;labelBackgroundColor=none;textShadow=0;align=left;fontSize=18;strokeColor=#56517e;fillColor=#d0cee2;" parent="1" vertex="1">
          <mxGeometry x="-680" y="240" width="400" height="100" as="geometry" />
        </mxCell>
        <mxCell id="zM4QcKesal0ujREZK3LC-21" style="edgeStyle=orthogonalEdgeStyle;shape=connector;curved=1;rounded=0;orthogonalLoop=1;jettySize=auto;html=1;strokeColor=default;align=center;verticalAlign=middle;fontFamily=Helvetica;fontSize=18;fontColor=default;labelBackgroundColor=none;endArrow=classic;" parent="1" source="zM4QcKesal0ujREZK3LC-20" target="zM4QcKesal0ujREZK3LC-18" edge="1">
          <mxGeometry relative="1" as="geometry" />
        </mxCell>
        <mxCell id="zM4QcKesal0ujREZK3LC-20" value="&lt;span style=&quot;font-family: system-ui, ui-sans-serif, -apple-system, BlinkMacSystemFont, sans-serif, Inter, NotoSansHans; letter-spacing: -0.28px; text-align: start; text-wrap-mode: nowrap;&quot;&gt;&lt;font style=&quot;color: light-dark(rgb(247, 248, 252), rgb(255, 255, 255));&quot;&gt;Утечка данных&lt;/font&gt;&lt;/span&gt;" style="whiteSpace=wrap;html=1;rounded=1;labelBackgroundColor=none;fontSize=18;strokeWidth=0;" parent="1" vertex="1">
          <mxGeometry x="-192.5" y="260" width="215" height="60" as="geometry" />
        </mxCell>
        <mxCell id="zM4QcKesal0ujREZK3LC-28" style="edgeStyle=orthogonalEdgeStyle;shape=connector;curved=1;rounded=0;orthogonalLoop=1;jettySize=auto;html=1;entryX=1;entryY=0.5;entryDx=0;entryDy=0;strokeColor=default;align=center;verticalAlign=middle;fontFamily=Helvetica;fontSize=18;fontColor=default;labelBackgroundColor=none;endArrow=classic;" parent="1" source="zM4QcKesal0ujREZK3LC-25" target="zM4QcKesal0ujREZK3LC-27" edge="1">
          <mxGeometry relative="1" as="geometry" />
        </mxCell>
        <mxCell id="zM4QcKesal0ujREZK3LC-25" value="&lt;span style=&quot;font-family: system-ui, ui-sans-serif, -apple-system, BlinkMacSystemFont, sans-serif, Inter, NotoSansHans; font-size: 14px; letter-spacing: -0.28px; text-align: start; text-wrap-mode: nowrap; background-color: light-dark(#ffffff, var(--ge-dark-color, #121212));&quot;&gt;&lt;font style=&quot;color: light-dark(rgb(247, 248, 252), rgb(247, 247, 247));&quot;&gt;Потеря данных&lt;/font&gt;&lt;/span&gt;" style="whiteSpace=wrap;html=1;rounded=1;labelBackgroundColor=none;strokeWidth=0;fontSize=18;" parent="1" vertex="1">
          <mxGeometry x="-180" y="505" width="170" height="60" as="geometry" />
        </mxCell>
        <mxCell id="zM4QcKesal0ujREZK3LC-27" value="&lt;font style=&quot;color: light-dark(rgb(0, 0, 0), rgb(240, 240, 240));&quot;&gt;&lt;span style=&quot;font-family: system-ui, ui-sans-serif, -apple-system, BlinkMacSystemFont, sans-serif, Inter, NotoSansHans; letter-spacing: -0.28px; text-wrap-mode: nowrap;&quot;&gt;&lt;font style=&quot;&quot;&gt;&amp;nbsp; &amp;nbsp;Значительно&lt;br&gt;&lt;/font&gt;&lt;/span&gt;&lt;span style=&quot;font-family: system-ui, ui-sans-serif, -apple-system, BlinkMacSystemFont, sans-serif, Inter, NotoSansHans; font-size: 14px; letter-spacing: -0.28px; text-wrap-mode: nowrap;&quot;&gt;&lt;span style=&quot;white-space: pre;&quot;&gt;&#x9;&lt;/span&gt;Нарушение или блокирование внутренних &lt;br&gt;&lt;span style=&quot;white-space: pre;&quot;&gt;&#x9;&lt;/span&gt;процессов компании&lt;/span&gt;&lt;/font&gt;" style="whiteSpace=wrap;html=1;rounded=1;strokeWidth=0;labelBackgroundColor=none;textShadow=0;align=left;fontSize=18;strokeColor=#B09500;fillColor=#e3c800;fontColor=#000000;" parent="1" vertex="1">
          <mxGeometry x="-680" y="490" width="400" height="90" as="geometry" />
        </mxCell>
        <mxCell id="zM4QcKesal0ujREZK3LC-30" value="&lt;font style=&quot;color: light-dark(rgb(0, 0, 0), rgb(255, 255, 255));&quot;&gt;&lt;font style=&quot;&quot;&gt;&lt;span style=&quot;font-family: system-ui, ui-sans-serif, -apple-system, BlinkMacSystemFont, sans-serif, Inter, NotoSansHans; letter-spacing: -0.28px; text-wrap-mode: nowrap;&quot;&gt;&lt;font style=&quot;&quot;&gt;&amp;nbsp; &amp;nbsp;Значительно&lt;br&gt;&lt;/font&gt;&lt;/span&gt;&lt;span style=&quot;font-family: system-ui, ui-sans-serif, -apple-system, BlinkMacSystemFont, sans-serif, Inter, NotoSansHans; font-size: 14px; letter-spacing: -0.28px; text-wrap-mode: nowrap;&quot;&gt;&lt;span style=&quot;white-space: pre;&quot;&gt;&#x9;&lt;/span&gt;-&amp;nbsp;&lt;/span&gt;&lt;/font&gt;&lt;font style=&quot;&quot; face=&quot;system-ui, ui-sans-serif, -apple-system, BlinkMacSystemFont, sans-serif, Inter, NotoSansHans&quot;&gt;&lt;span style=&quot;font-size: 14px; letter-spacing: -0.28px; text-wrap-mode: nowrap;&quot;&gt;Доступ к внутренней информации может быть &lt;br&gt;&lt;span style=&quot;white-space: pre;&quot;&gt;&#x9;&lt;/span&gt;использован конкурентами или &lt;br&gt;&lt;span style=&quot;white-space: pre;&quot;&gt;&#x9;&lt;/span&gt;нарушить конфиденциальность процессов.&lt;br&gt;&lt;span style=&quot;white-space: pre;&quot;&gt;&#x9;&lt;/span&gt;- Репутационные потери.&lt;/span&gt;&lt;/font&gt;&lt;span style=&quot;font-family: monospace; font-size: 0px; text-wrap-mode: nowrap;&quot;&gt;е%3CmxGraphModel%3E%3Croot%3E%3CmxCell%20id%3D%220%22%2F%3E%3CmxCell%20id%3D%221%22%20parent%3D%220%22%2F%3E%3CmxCell%20id%3D%222%22%20value%3D%22%26lt%3Bspan%20style%3D%26quot%3Bbackground-color%3A%20light-dark(%23ffffff%2C%20var(--ge-dark-color%2C%20%23121212))%3B%26quot%3B%26gt%3B%26lt%3Bfont%20style%3D%26quot%3Bcolor%3A%20light-dark(rgb(0%2C%200%2C%200)%2C%20rgb(240%2C%20240%2C%20240))%3B%26quot%3B%26gt%3B%26lt%3Bspan%20style%3D%26quot%3Bfont-family%3A%20system-ui%2C%20ui-sans-serif%2C%20-apple-system%2C%20BlinkMacSystemFont%2C%20sans-serif%2C%20Inter%2C%20NotoSansHans%3B%20letter-spacing%3A%20-0.28px%3B%20text-wrap-mode%3A%20nowrap%3B%26quot%3B%26gt%3B%26lt%3Bfont%20style%3D%26quot%3B%26quot%3B%26gt%3B%26amp%3Bnbsp%3B%20%26amp%3Bnbsp%3B%D0%97%D0%BD%D0%B0%D1%87%D0%B8%D1%82%D0%B5%D0%BB%D1%8C%D0%BD%D0%BE%26lt%3Bbr%26gt%3B%26lt%3B%2Ffont%26gt%3B%26lt%3B%2Fspan%26gt%3B%26lt%3Bspan%20style%3D%26quot%3Bfont-family%3A%20system-ui%2C%20ui-sans-serif%2C%20-apple-system%2C%20BlinkMacSystemFont%2C%20sans-serif%2C%20Inter%2C%20NotoSansHans%3B%20font-size%3A%2014px%3B%20letter-spacing%3A%20-0.28px%3B%20text-wrap-mode%3A%20nowrap%3B%26quot%3B%26gt%3B%26lt%3Bspan%20style%3D%26quot%3Bwhite-space%3A%20pre%3B%26quot%3B%26gt%3B%26%239%3B%26lt%3B%2Fspan%26gt%3B%D0%9D%D0%B0%D1%80%D1%83%D1%88%D0%B5%D0%BD%D0%B8%D0%B5%20%D0%B8%D0%BB%D0%B8%20%D0%B1%D0%BB%D0%BE%D0%BA%D0%B8%D1%80%D0%BE%D0%B2%D0%B0%D0%BD%D0%B8%D0%B5%20%D0%B2%D0%BD%D1%83%D1%82%D1%80%D0%B5%D0%BD%D0%BD%D0%B8%D1%85%20%26lt%3Bbr%26gt%3B%26lt%3Bspan%20style%3D%26quot%3Bwhite-space%3A%20pre%3B%26quot%3B%26gt%3B%26%239%3B%26lt%3B%2Fspan%26gt%3B%D0%BF%D1%80%D0%BE%D1%86%D0%B5%D1%81%D1%81%D0%BE%D0%B2%20%D0%BA%D0%BE%D0%BC%D0%BF%D0%B0%D0%BD%D0%B8%D0%B8%26lt%3B%2Fspan%26gt%3B%26lt%3B%2Ffont%26gt%3B%26lt%3B%2Fspan%26gt%3B%22%20style%3D%22whiteSpace%3Dwrap%3Bhtml%3D1%3Brounded%3D1%3BstrokeWidth%3D0%3BlabelBackgroundColor%3Dnone%3BtextShadow%3D0%3Balign%3Dleft%3BfontSize%3D18%3BstrokeColor%3Ddefault%3B%22%20vertex%3D%221%22%20parent%3D%221%22%3E%3CmxGeometry%20x%3D%22-680%22%20y%3D%22390%22%20width%3D%22400%22%20height%3D%2290%22%20as%3D%22geometry%22%2F%3E%3C%2FmxCell%3E%3C%2Froot%3E%3C%2FmxGraphModel%3E&lt;/span&gt;&lt;/font&gt;" style="whiteSpace=wrap;html=1;rounded=1;strokeWidth=0;labelBackgroundColor=none;textShadow=0;align=left;fontSize=18;strokeColor=#B09500;fillColor=#e3c800;fontColor=#000000;" parent="1" vertex="1">
          <mxGeometry x="-680" y="610" width="400" height="140" as="geometry" />
        </mxCell>
        <mxCell id="zM4QcKesal0ujREZK3LC-32" value="&lt;font style=&quot;color: light-dark(rgb(0, 0, 0), rgb(240, 240, 240));&quot;&gt;&lt;span style=&quot;font-family: system-ui, ui-sans-serif, -apple-system, BlinkMacSystemFont, sans-serif, Inter, NotoSansHans; letter-spacing: -0.28px; text-wrap-mode: nowrap;&quot;&gt;&lt;font style=&quot;&quot;&gt;&amp;nbsp; &amp;nbsp;Значительно&lt;br&gt;&lt;/font&gt;&lt;/span&gt;&lt;span style=&quot;font-family: system-ui, ui-sans-serif, -apple-system, BlinkMacSystemFont, sans-serif, Inter, NotoSansHans; font-size: 14px; letter-spacing: -0.28px; text-wrap-mode: nowrap;&quot;&gt;&lt;span style=&quot;white-space: pre;&quot;&gt;&#x9;&lt;/span&gt;Приведёт к ошибкам во внутренних &lt;br&gt;&lt;span style=&quot;white-space: pre;&quot;&gt;&#x9;&lt;/span&gt;процессах компании&lt;/span&gt;&lt;/font&gt;" style="whiteSpace=wrap;html=1;rounded=1;strokeWidth=0;labelBackgroundColor=none;textShadow=0;align=left;fontSize=18;strokeColor=#B09500;fillColor=#e3c800;fontColor=#000000;" parent="1" vertex="1">
          <mxGeometry x="-680" y="780" width="400" height="90" as="geometry" />
        </mxCell>
        <mxCell id="zM4QcKesal0ujREZK3LC-38" style="edgeStyle=orthogonalEdgeStyle;shape=connector;curved=1;rounded=0;orthogonalLoop=1;jettySize=auto;html=1;strokeColor=default;align=center;verticalAlign=middle;fontFamily=Helvetica;fontSize=18;fontColor=default;labelBackgroundColor=none;endArrow=classic;" parent="1" source="zM4QcKesal0ujREZK3LC-35" target="zM4QcKesal0ujREZK3LC-37" edge="1">
          <mxGeometry relative="1" as="geometry" />
        </mxCell>
        <mxCell id="zM4QcKesal0ujREZK3LC-35" value="&lt;div style=&quot;&quot;&gt;&lt;span style=&quot;background-color: transparent; white-space-collapse: preserve-breaks;&quot;&gt;&lt;font face=&quot;YS Text, sans-serif&quot;&gt;Обесценивание данных&lt;/font&gt;&lt;/span&gt;&lt;/div&gt;" style="whiteSpace=wrap;html=1;rounded=1;labelBackgroundColor=none;strokeWidth=0;fontSize=18;align=center;" parent="1" vertex="1">
          <mxGeometry x="-180" y="925" width="170" height="60" as="geometry" />
        </mxCell>
        <mxCell id="zM4QcKesal0ujREZK3LC-37" value="&lt;font style=&quot;color: light-dark(rgb(0, 0, 0), rgb(240, 240, 240));&quot;&gt;&lt;span style=&quot;font-family: system-ui, ui-sans-serif, -apple-system, BlinkMacSystemFont, sans-serif, Inter, NotoSansHans; letter-spacing: -0.28px; text-wrap-mode: nowrap;&quot;&gt;&lt;font style=&quot;&quot;&gt;&amp;nbsp; &amp;nbsp;Незначительно&lt;br&gt;&lt;/font&gt;&lt;/span&gt;&lt;span style=&quot;font-family: system-ui, ui-sans-serif, -apple-system, BlinkMacSystemFont, sans-serif, Inter, NotoSansHans; font-size: 14px; letter-spacing: -0.28px; text-wrap-mode: nowrap;&quot;&gt;&lt;span style=&quot;white-space: pre;&quot;&gt;&#x9;&lt;/span&gt;Со временем данные теряют ценность, ожидаемо &lt;br&gt;&lt;span style=&quot;white-space: pre;&quot;&gt;&#x9;&lt;/span&gt;и легко контролируемо&lt;/span&gt;&lt;/font&gt;" style="whiteSpace=wrap;html=1;rounded=1;strokeWidth=0;labelBackgroundColor=none;textShadow=0;align=left;fontSize=18;fillColor=#d0cee2;strokeColor=#56517e;" parent="1" vertex="1">
          <mxGeometry x="-680" y="910" width="400" height="90" as="geometry" />
        </mxCell>
        <mxCell id="zM4QcKesal0ujREZK3LC-39" value="&lt;div style=&quot;&quot;&gt;&lt;div style=&quot;&quot;&gt;&lt;span style=&quot;font-family: system-ui, ui-sans-serif, -apple-system, BlinkMacSystemFont, sans-serif, Inter, NotoSansHans; letter-spacing: 0.02em; text-wrap-mode: nowrap; color: light-dark(rgb(0, 0, 0), rgb(255, 255, 255));&quot;&gt;&amp;nbsp; &amp;nbsp;Критический риск&lt;/span&gt;&lt;/div&gt;&lt;div style=&quot;color: light-dark(rgb(0, 0, 0), rgb(255, 255, 255)); white-space-collapse: preserve-breaks;&quot;&gt;&lt;span style=&quot;font-size: 14px; font-family: &amp;quot;YS Text&amp;quot;, sans-serif; color: light-dark(rgb(0, 0, 0), rgb(255, 255, 255));&quot;&gt;&lt;span style=&quot;white-space: pre;&quot;&gt;&#x9;&lt;/span&gt;- Нарушение и блокировка внутренних процессов&lt;br&gt;&lt;span style=&quot;white-space: pre;&quot;&gt;&#x9;&lt;/span&gt;- Блокировка бизнес-процессов&lt;br&gt;&lt;span style=&quot;white-space: pre;&quot;&gt;&#x9;&lt;/span&gt;- Возможные юридические последствия&lt;br&gt;&lt;/span&gt;&lt;/div&gt;&lt;/div&gt;" style="whiteSpace=wrap;html=1;rounded=1;strokeWidth=0;labelBackgroundColor=none;fontSize=18;align=left;fillColor=#f8cecc;strokeColor=#b85450;" parent="1" vertex="1">
          <mxGeometry x="1154" y="5" width="394" height="115" as="geometry" />
        </mxCell>
        <mxCell id="zM4QcKesal0ujREZK3LC-43" value="" style="edgeStyle=orthogonalEdgeStyle;shape=connector;curved=1;rounded=0;orthogonalLoop=1;jettySize=auto;html=1;strokeColor=default;align=center;verticalAlign=middle;fontFamily=Helvetica;fontSize=18;fontColor=default;labelBackgroundColor=none;endArrow=classic;" parent="1" source="zM4QcKesal0ujREZK3LC-41" target="zM4QcKesal0ujREZK3LC-39" edge="1">
          <mxGeometry relative="1" as="geometry" />
        </mxCell>
        <mxCell id="zM4QcKesal0ujREZK3LC-41" value="&lt;span style=&quot;font-family: system-ui, ui-sans-serif, -apple-system, BlinkMacSystemFont, sans-serif, Inter, NotoSansHans; font-size: 14px; letter-spacing: -0.28px; text-align: start; text-wrap-mode: nowrap; background-color: light-dark(#ffffff, var(--ge-dark-color, #121212));&quot;&gt;&lt;font style=&quot;color: light-dark(rgb(247, 248, 252), rgb(247, 247, 247));&quot;&gt;Потеря данных&lt;/font&gt;&lt;/span&gt;" style="whiteSpace=wrap;html=1;rounded=1;labelBackgroundColor=none;strokeWidth=0;fontSize=18;" parent="1" vertex="1">
          <mxGeometry x="880" y="32.5" width="170" height="60" as="geometry" />
        </mxCell>
        <mxCell id="zM4QcKesal0ujREZK3LC-47" style="edgeStyle=orthogonalEdgeStyle;shape=connector;curved=1;rounded=0;orthogonalLoop=1;jettySize=auto;html=1;exitX=1;exitY=0.5;exitDx=0;exitDy=0;entryX=0;entryY=0.5;entryDx=0;entryDy=0;strokeColor=default;align=center;verticalAlign=middle;fontFamily=Helvetica;fontSize=18;fontColor=default;labelBackgroundColor=none;endArrow=classic;" parent="1" source="zM4QcKesal0ujREZK3LC-44" target="zM4QcKesal0ujREZK3LC-45" edge="1">
          <mxGeometry relative="1" as="geometry" />
        </mxCell>
        <mxCell id="zM4QcKesal0ujREZK3LC-44" value="&lt;span style=&quot;font-family: &amp;quot;YS Text&amp;quot;, sans-serif; text-align: left; white-space-collapse: preserve-breaks; background-color: light-dark(#ffffff, var(--ge-dark-color, #121212));&quot;&gt;&lt;font style=&quot;color: light-dark(rgb(214, 214, 214), rgb(255, 255, 255));&quot;&gt;искажение данных&lt;/font&gt;&lt;/span&gt;" style="whiteSpace=wrap;html=1;rounded=1;strokeWidth=0;labelBackgroundColor=none;textShadow=0;fontSize=18;" parent="1" vertex="1">
          <mxGeometry x="880" y="145" width="170" height="60" as="geometry" />
        </mxCell>
        <mxCell id="zM4QcKesal0ujREZK3LC-45" value="&lt;div style=&quot;&quot;&gt;&lt;div style=&quot;&quot;&gt;&lt;span style=&quot;font-family: system-ui, ui-sans-serif, -apple-system, BlinkMacSystemFont, sans-serif, Inter, NotoSansHans; letter-spacing: 0.02em; text-wrap-mode: nowrap;&quot;&gt;&lt;font&gt;&amp;nbsp; &amp;nbsp;Критический риск&lt;/font&gt;&lt;/span&gt;&lt;/div&gt;&lt;div style=&quot;white-space-collapse: preserve-breaks;&quot;&gt;&lt;font style=&quot;&quot;&gt;&lt;span style=&quot;font-family: system-ui, ui-sans-serif, -apple-system, BlinkMacSystemFont, sans-serif, Inter, NotoSansHans; font-size: 14px; letter-spacing: -0.28px; white-space: nowrap;&quot;&gt;&lt;span style=&quot;white-space: pre;&quot;&gt;&#x9;&lt;/span&gt;- Может привести к нарушению обязательств&amp;nbsp;&lt;/span&gt;&lt;span style=&quot;font-family: monospace; font-size: 0px; white-space: nowrap;&quot;&gt;%3CmxGraphModel%3E%3Croot%3E%3CmxCell%20id%3D%220%22%2F%3E%3CmxCell%20id%3D%221%22%20parent%3D%220%22%2F%3E%3CmxCell%20id%3D%222%22%20value%3D%22%26lt%3Bdiv%20style%3D%26quot%3B%26quot%3B%26gt%3B%26lt%3Bdiv%20style%3D%26quot%3B%26quot%3B%26gt%3B%26lt%3Bspan%20style%3D%26quot%3Bfont-family%3A%20system-ui%2C%20ui-sans-serif%2C%20-apple-system%2C%20BlinkMacSystemFont%2C%20sans-serif%2C%20Inter%2C%20NotoSansHans%3B%20letter-spacing%3A%200.02em%3B%20text-wrap-mode%3A%20nowrap%3B%20color%3A%20light-dark(rgb(0%2C%200%2C%200)%2C%20rgb(255%2C%20255%2C%20255))%3B%26quot%3B%26gt%3B%26amp%3Bnbsp%3B%20%26amp%3Bnbsp%3B%D0%9A%D1%80%D0%B8%D1%82%D0%B8%D1%87%D0%B5%D1%81%D0%BA%D0%B8%D0%B9%20%D1%80%D0%B8%D1%81%D0%BA%26lt%3B%2Fspan%26gt%3B%26lt%3B%2Fdiv%26gt%3B%26lt%3Bdiv%20style%3D%26quot%3Bcolor%3A%20light-dark(rgb(0%2C%200%2C%200)%2C%20rgb(255%2C%20255%2C%20255))%3B%20white-space-collapse%3A%20preserve-breaks%3B%26quot%3B%26gt%3B%26lt%3Bspan%20style%3D%26quot%3Bfont-size%3A%2014px%3B%20font-family%3A%20%26amp%3Bquot%3BYS%20Text%26amp%3Bquot%3B%2C%20sans-serif%3B%20color%3A%20light-dark(rgb(0%2C%200%2C%200)%2C%20rgb(255%2C%20255%2C%20255))%3B%26quot%3B%26gt%3B%26lt%3Bspan%20style%3D%26quot%3Bwhite-space%3A%20pre%3B%26quot%3B%26gt%3B%26%239%3B%26lt%3B%2Fspan%26gt%3B-%20%D0%9D%D0%B0%D1%80%D1%83%D1%88%D0%B5%D0%BD%D0%B8%D0%B5%20%D0%B8%20%D0%B1%D0%BB%D0%BE%D0%BA%D0%B8%D1%80%D0%BE%D0%B2%D0%BA%D0%B0%20%D0%B2%D0%BD%D1%83%D1%82%D1%80%D0%B5%D0%BD%D0%BD%D0%B8%D1%85%20%26lt%3Bspan%20style%3D%26quot%3Bwhite-space%3A%20pre%3B%26quot%3B%26gt%3B%26%239%3B%26lt%3B%2Fspan%26gt%3B%D0%BF%D1%80%D0%BE%D1%86%D0%B5%D1%81%D1%81%D0%BE%D0%B2%26lt%3Bbr%26gt%3B%26lt%3Bspan%20style%3D%26quot%3Bwhite-space%3A%20pre%3B%26quot%3B%26gt%3B%26%239%3B%26lt%3B%2Fspan%26gt%3B-%20%D0%91%D0%BB%D0%BE%D0%BA%D0%B8%D1%80%D0%BE%D0%B2%D0%BA%D0%B0%20%D0%B1%D0%B8%D0%B7%D0%BD%D0%B5%D1%81-%D0%BF%D1%80%D0%BE%D1%86%D0%B5%D1%81%D1%81%D0%BE%D0%B2%26lt%3Bbr%26gt%3B%26lt%3Bspan%20style%3D%26quot%3Bwhite-space%3A%20pre%3B%26quot%3B%26gt%3B%26%239%3B%26lt%3B%2Fspan%26gt%3B-%20%D0%92%D0%BE%D0%B7%D0%BC%D0%BE%D0%B6%D0%BD%D1%8B%D0%B5%20%D1%8E%D1%80%D0%B8%D0%B4%D0%B8%D1%87%D0%B5%D1%81%D0%BA%D0%B8%D0%B5%20%D0%BF%D0%BE%D1%81%D0%BB%D0%B5%D0%B4%D1%81%D1%82%D0%B2%D0%B8%D1%8F%26lt%3Bbr%26gt%3B%26lt%3B%2Fspan%26gt%3B%26lt%3B%2Fdiv%26gt%3B%26lt%3B%2Fdiv%26gt%3B%22%20style%3D%22whiteSpace%3Dwrap%3Bhtml%3D1%3Brounded%3D1%3BstrokeWidth%3D0%3BlabelBackgroundColor%3Dnone%3BfontSize%3D18%3Balign%3Dleft%3BfillColor%3D%23f8cecc%3BstrokeColor%3D%23b85450%3B%22%20vertex%3D%221%22%20parent%3D%221%22%3E%3CmxGeometry%20x%3D%221090%22%20y%3D%22230%22%20width%3D%22310%22%20height%3D%22140%22%20as%3D%22geometry%22%2F%3E%3C%2FmxCell%3E%3C%2Froot%3E%3C%2FmxGraphModel%3E&amp;nbsp;&lt;/span&gt;&lt;/font&gt;&lt;/div&gt;&lt;/div&gt;" style="whiteSpace=wrap;html=1;rounded=1;strokeWidth=0;labelBackgroundColor=none;fontSize=18;align=left;fillColor=#f8cecc;strokeColor=#b85450;" parent="1" vertex="1">
          <mxGeometry x="1156" y="135" width="394" height="80" as="geometry" />
        </mxCell>
        <mxCell id="zM4QcKesal0ujREZK3LC-51" style="edgeStyle=orthogonalEdgeStyle;shape=connector;curved=1;rounded=0;orthogonalLoop=1;jettySize=auto;html=1;strokeColor=default;align=center;verticalAlign=middle;fontFamily=Helvetica;fontSize=18;fontColor=default;labelBackgroundColor=none;endArrow=classic;" parent="1" source="zM4QcKesal0ujREZK3LC-48" target="zM4QcKesal0ujREZK3LC-49" edge="1">
          <mxGeometry relative="1" as="geometry" />
        </mxCell>
        <mxCell id="zM4QcKesal0ujREZK3LC-48" value="&lt;div style=&quot;&quot;&gt;&lt;span style=&quot;background-color: transparent; white-space-collapse: preserve-breaks;&quot;&gt;&lt;font face=&quot;YS Text, sans-serif&quot;&gt;Обесценивание данных&lt;/font&gt;&lt;/span&gt;&lt;/div&gt;" style="whiteSpace=wrap;html=1;rounded=1;labelBackgroundColor=none;strokeWidth=0;fontSize=18;align=center;" parent="1" vertex="1">
          <mxGeometry x="880" y="360" width="170" height="60" as="geometry" />
        </mxCell>
        <mxCell id="zM4QcKesal0ujREZK3LC-49" value="&lt;font style=&quot;color: light-dark(rgb(0, 0, 0), rgb(240, 240, 240));&quot;&gt;&lt;span style=&quot;font-family: system-ui, ui-sans-serif, -apple-system, BlinkMacSystemFont, sans-serif, Inter, NotoSansHans; letter-spacing: -0.28px; text-wrap-mode: nowrap;&quot;&gt;&lt;font style=&quot;&quot;&gt;&amp;nbsp; &amp;nbsp;Значительно&lt;br&gt;&lt;/font&gt;&lt;/span&gt;&lt;span style=&quot;font-family: system-ui, ui-sans-serif, -apple-system, BlinkMacSystemFont, sans-serif, Inter, NotoSansHans; font-size: 14px; letter-spacing: -0.28px; text-wrap-mode: nowrap;&quot;&gt;&lt;span style=&quot;white-space: pre;&quot;&gt;&#x9;&lt;/span&gt;Нарушение или блокирование внутренних &lt;br&gt;&lt;span style=&quot;white-space: pre;&quot;&gt;&#x9;&lt;/span&gt;процессов компании&lt;/span&gt;&lt;/font&gt;" style="whiteSpace=wrap;html=1;rounded=1;strokeWidth=0;labelBackgroundColor=none;textShadow=0;align=left;fontSize=18;strokeColor=#B09500;fillColor=#e3c800;fontColor=#000000;" parent="1" vertex="1">
          <mxGeometry x="1153" y="345" width="400" height="90" as="geometry" />
        </mxCell>
        <mxCell id="zM4QcKesal0ujREZK3LC-55" style="edgeStyle=orthogonalEdgeStyle;shape=connector;curved=1;rounded=0;orthogonalLoop=1;jettySize=auto;html=1;entryX=0;entryY=0.5;entryDx=0;entryDy=0;strokeColor=default;align=center;verticalAlign=middle;fontFamily=Helvetica;fontSize=18;fontColor=default;labelBackgroundColor=none;endArrow=classic;" parent="1" source="zM4QcKesal0ujREZK3LC-52" target="zM4QcKesal0ujREZK3LC-54" edge="1">
          <mxGeometry relative="1" as="geometry" />
        </mxCell>
        <mxCell id="zM4QcKesal0ujREZK3LC-52" value="&lt;span style=&quot;font-family: &amp;quot;YS Text&amp;quot;, sans-serif; text-align: left; white-space-collapse: preserve-breaks;&quot;&gt;некачественные данные&lt;/span&gt;" style="whiteSpace=wrap;html=1;rounded=1;labelBackgroundColor=none;strokeWidth=0;fontSize=18;" parent="1" vertex="1">
          <mxGeometry x="880" y="250" width="170" height="60" as="geometry" />
        </mxCell>
        <mxCell id="zM4QcKesal0ujREZK3LC-54" value="&lt;span&gt;&lt;font&gt;&lt;font style=&quot;&quot;&gt;&lt;span style=&quot;font-family: system-ui, ui-sans-serif, -apple-system, BlinkMacSystemFont, sans-serif, Inter, NotoSansHans; letter-spacing: -0.28px; text-wrap-mode: nowrap;&quot;&gt;&lt;font style=&quot;&quot;&gt;&amp;nbsp; &amp;nbsp;Значительно&lt;br&gt;&lt;/font&gt;&lt;/span&gt;&lt;span style=&quot;font-family: system-ui, ui-sans-serif, -apple-system, BlinkMacSystemFont, sans-serif, Inter, NotoSansHans; font-size: 14px; letter-spacing: -0.28px; text-wrap-mode: nowrap;&quot;&gt;&lt;span style=&quot;white-space: pre;&quot;&gt;&#x9;&lt;/span&gt;&lt;/span&gt;&lt;/font&gt;&lt;span style=&quot;font-family: system-ui, ui-sans-serif, -apple-system, BlinkMacSystemFont, sans-serif, Inter, NotoSansHans; font-size: 16px; letter-spacing: 0.32px; white-space-collapse: preserve-breaks;&quot;&gt;&lt;font style=&quot;color: light-dark(rgb(250, 250, 252), rgb(255, 255, 255));&quot;&gt;Ведут к ошибкам в принятии решений&lt;/font&gt;&lt;/span&gt;&lt;/font&gt;&lt;/span&gt;" style="whiteSpace=wrap;html=1;rounded=1;strokeWidth=0;labelBackgroundColor=none;textShadow=0;align=left;fontSize=18;strokeColor=#B09500;fillColor=#e3c800;fontColor=#000000;" parent="1" vertex="1">
          <mxGeometry x="1154" y="235" width="400" height="90" as="geometry" />
        </mxCell>
        <mxCell id="zM4QcKesal0ujREZK3LC-72" style="edgeStyle=orthogonalEdgeStyle;shape=connector;curved=1;rounded=0;orthogonalLoop=1;jettySize=auto;html=1;entryX=0;entryY=0.5;entryDx=0;entryDy=0;strokeColor=default;align=center;verticalAlign=middle;fontFamily=Helvetica;fontSize=18;fontColor=default;labelBackgroundColor=none;endArrow=classic;" parent="1" source="zM4QcKesal0ujREZK3LC-57" target="zM4QcKesal0ujREZK3LC-67" edge="1">
          <mxGeometry relative="1" as="geometry" />
        </mxCell>
        <mxCell id="zM4QcKesal0ujREZK3LC-57" value="&lt;span style=&quot;font-family: &amp;quot;YS Text&amp;quot;, sans-serif; font-style: normal; font-variant-ligatures: normal; font-variant-caps: normal; font-weight: 400; letter-spacing: normal; orphans: 2; text-align: left; text-indent: 0px; text-transform: none; widows: 2; word-spacing: 0px; -webkit-text-stroke-width: 0px; white-space: pre-line; text-decoration-thickness: initial; text-decoration-style: initial; text-decoration-color: initial; float: none; display: inline !important;&quot;&gt;утечка данных&lt;/span&gt;" style="whiteSpace=wrap;html=1;rounded=1;strokeWidth=0;labelBackgroundColor=none;fontSize=18;fontColor=default;" parent="1" vertex="1">
          <mxGeometry x="880" y="480" width="120" height="60" as="geometry" />
        </mxCell>
        <mxCell id="zM4QcKesal0ujREZK3LC-73" style="edgeStyle=orthogonalEdgeStyle;shape=connector;curved=1;rounded=0;orthogonalLoop=1;jettySize=auto;html=1;entryX=0;entryY=0.5;entryDx=0;entryDy=0;strokeColor=default;align=center;verticalAlign=middle;fontFamily=Helvetica;fontSize=18;fontColor=default;labelBackgroundColor=none;endArrow=classic;" parent="1" source="zM4QcKesal0ujREZK3LC-58" target="zM4QcKesal0ujREZK3LC-68" edge="1">
          <mxGeometry relative="1" as="geometry" />
        </mxCell>
        <mxCell id="zM4QcKesal0ujREZK3LC-58" value="&lt;span style=&quot;font-family: system-ui, ui-sans-serif, -apple-system, BlinkMacSystemFont, sans-serif, Inter, NotoSansHans; font-size: 14px; letter-spacing: -0.28px; text-align: start; text-wrap-mode: nowrap; background-color: light-dark(#ffffff, var(--ge-dark-color, #121212));&quot;&gt;&lt;font style=&quot;color: light-dark(rgb(247, 248, 252), rgb(247, 247, 247));&quot;&gt;Потеря данных&lt;/font&gt;&lt;/span&gt;" style="whiteSpace=wrap;html=1;rounded=1;labelBackgroundColor=none;strokeWidth=0;fontSize=18;" parent="1" vertex="1">
          <mxGeometry x="880" y="607.5" width="170" height="60" as="geometry" />
        </mxCell>
        <mxCell id="zM4QcKesal0ujREZK3LC-74" style="edgeStyle=orthogonalEdgeStyle;shape=connector;curved=1;rounded=0;orthogonalLoop=1;jettySize=auto;html=1;entryX=0;entryY=0.5;entryDx=0;entryDy=0;strokeColor=default;align=center;verticalAlign=middle;fontFamily=Helvetica;fontSize=18;fontColor=default;labelBackgroundColor=none;endArrow=classic;" parent="1" source="zM4QcKesal0ujREZK3LC-59" target="zM4QcKesal0ujREZK3LC-69" edge="1">
          <mxGeometry relative="1" as="geometry" />
        </mxCell>
        <mxCell id="zM4QcKesal0ujREZK3LC-59" value="&lt;span style=&quot;font-family: &amp;quot;YS Text&amp;quot;, sans-serif; text-align: left; white-space-collapse: preserve-breaks; background-color: light-dark(#ffffff, var(--ge-dark-color, #121212));&quot;&gt;&lt;font style=&quot;color: light-dark(rgb(214, 214, 214), rgb(255, 255, 255));&quot;&gt;искажение данных&lt;/font&gt;&lt;/span&gt;" style="whiteSpace=wrap;html=1;rounded=1;strokeWidth=0;labelBackgroundColor=none;textShadow=0;fontSize=18;" parent="1" vertex="1">
          <mxGeometry x="880" y="722.5" width="170" height="60" as="geometry" />
        </mxCell>
        <mxCell id="zM4QcKesal0ujREZK3LC-76" style="edgeStyle=orthogonalEdgeStyle;shape=connector;curved=1;rounded=0;orthogonalLoop=1;jettySize=auto;html=1;strokeColor=default;align=center;verticalAlign=middle;fontFamily=Helvetica;fontSize=18;fontColor=default;labelBackgroundColor=none;endArrow=classic;" parent="1" source="zM4QcKesal0ujREZK3LC-60" target="zM4QcKesal0ujREZK3LC-70" edge="1">
          <mxGeometry relative="1" as="geometry" />
        </mxCell>
        <mxCell id="zM4QcKesal0ujREZK3LC-60" value="&lt;div style=&quot;&quot;&gt;&lt;span style=&quot;background-color: transparent; white-space-collapse: preserve-breaks;&quot;&gt;&lt;font face=&quot;YS Text, sans-serif&quot;&gt;Обесценивание данных&lt;/font&gt;&lt;/span&gt;&lt;/div&gt;" style="whiteSpace=wrap;html=1;rounded=1;labelBackgroundColor=none;strokeWidth=0;fontSize=18;align=center;" parent="1" vertex="1">
          <mxGeometry x="880" y="930" width="170" height="60" as="geometry" />
        </mxCell>
        <mxCell id="zM4QcKesal0ujREZK3LC-75" style="edgeStyle=orthogonalEdgeStyle;shape=connector;curved=1;rounded=0;orthogonalLoop=1;jettySize=auto;html=1;entryX=0;entryY=0.5;entryDx=0;entryDy=0;strokeColor=default;align=center;verticalAlign=middle;fontFamily=Helvetica;fontSize=18;fontColor=default;labelBackgroundColor=none;endArrow=classic;" parent="1" source="zM4QcKesal0ujREZK3LC-61" target="zM4QcKesal0ujREZK3LC-71" edge="1">
          <mxGeometry relative="1" as="geometry" />
        </mxCell>
        <mxCell id="zM4QcKesal0ujREZK3LC-61" value="&lt;span style=&quot;font-family: &amp;quot;YS Text&amp;quot;, sans-serif; text-align: left; white-space-collapse: preserve-breaks;&quot;&gt;некачественные данные&lt;/span&gt;" style="whiteSpace=wrap;html=1;rounded=1;labelBackgroundColor=none;strokeWidth=0;fontSize=18;" parent="1" vertex="1">
          <mxGeometry x="880" y="825" width="170" height="60" as="geometry" />
        </mxCell>
        <mxCell id="zM4QcKesal0ujREZK3LC-67" value="&lt;div style=&quot;&quot;&gt;&lt;div style=&quot;&quot;&gt;&lt;span style=&quot;font-family: system-ui, ui-sans-serif, -apple-system, BlinkMacSystemFont, sans-serif, Inter, NotoSansHans; letter-spacing: 0.02em; text-wrap-mode: nowrap;&quot;&gt;&amp;nbsp; &amp;nbsp;Критический риск&lt;/span&gt;&lt;/div&gt;&lt;div style=&quot;white-space-collapse: preserve-breaks;&quot;&gt;&lt;span style=&quot;&quot;&gt;&lt;span style=&quot;font-size: 14px; font-family: &amp;quot;YS Text&amp;quot;, sans-serif;&quot;&gt;&lt;span style=&quot;white-space: pre;&quot;&gt;&#x9;&lt;/span&gt;-&amp;nbsp;&lt;/span&gt;&lt;span style=&quot;font-family: system-ui, ui-sans-serif, -apple-system, BlinkMacSystemFont, sans-serif, Inter, NotoSansHans; font-size: 14px; letter-spacing: -0.28px; white-space: nowrap;&quot;&gt;Угроза компрометации всей системы безопасности.&lt;br&gt;&amp;nbsp;&lt;span style=&quot;white-space: pre;&quot;&gt;&#x9;&lt;/span&gt;- Злоумышленник может получить доступ ко всем уровням данных,&lt;/span&gt;&lt;/span&gt;&lt;/div&gt;&lt;div style=&quot;white-space-collapse: preserve-breaks;&quot;&gt;&lt;span style=&quot;&quot;&gt;&lt;span style=&quot;font-family: system-ui, ui-sans-serif, -apple-system, BlinkMacSystemFont, sans-serif, Inter, NotoSansHans; font-size: 14px; letter-spacing: -0.28px; white-space: nowrap;&quot;&gt;&lt;span style=&quot;white-space: pre;&quot;&gt;&#x9;&lt;/span&gt;&amp;nbsp;включая конфиденциальные и публичные. &lt;br&gt;&amp;nbsp;&lt;span style=&quot;white-space: pre;&quot;&gt;&#x9;&lt;/span&gt;- Возможны штрафы, судебные иски, репутационные потери&lt;/span&gt;&lt;/span&gt;&lt;/div&gt;&lt;/div&gt;" style="whiteSpace=wrap;html=1;rounded=1;strokeWidth=0;labelBackgroundColor=none;fontSize=18;align=left;fillColor=#f8cecc;strokeColor=#b85450;fontColor=default;" parent="1" vertex="1">
          <mxGeometry x="1160" y="450" width="488" height="120" as="geometry" />
        </mxCell>
        <mxCell id="zM4QcKesal0ujREZK3LC-68" value="&lt;div style=&quot;&quot;&gt;&lt;div style=&quot;&quot;&gt;&lt;span style=&quot;font-family: system-ui, ui-sans-serif, -apple-system, BlinkMacSystemFont, sans-serif, Inter, NotoSansHans; letter-spacing: 0.02em; text-wrap-mode: nowrap;&quot;&gt;&lt;font&gt;&amp;nbsp; &amp;nbsp;Критический риск&lt;/font&gt;&lt;/span&gt;&lt;/div&gt;&lt;div style=&quot;white-space-collapse: preserve-breaks;&quot;&gt;&lt;font&gt;&lt;span style=&quot;font-size: 14px; font-family: &amp;quot;YS Text&amp;quot;, sans-serif;&quot;&gt;&lt;span style=&quot;white-space: pre;&quot;&gt;&#x9;&lt;/span&gt;- Б&lt;/span&gt;&lt;span style=&quot;font-family: system-ui, ui-sans-serif, -apple-system, BlinkMacSystemFont, sans-serif, Inter, NotoSansHans; font-size: 14px; letter-spacing: -0.28px; white-space: nowrap;&quot;&gt;локирует доступ к критическим системам и данным. &lt;br&gt;&lt;span style=&quot;white-space: pre;&quot;&gt;&#x9;&lt;/span&gt;- Требуется срочное восстановление, &lt;br&gt;&lt;span style=&quot;white-space: pre;&quot;&gt;&#x9;&lt;/span&gt;что может занять много времени и ресурсов.&lt;/span&gt;&lt;/font&gt;&lt;span style=&quot;color: light-dark(rgb(0, 0, 0), rgb(255, 255, 255)); font-size: 14px; font-family: &amp;quot;YS Text&amp;quot;, sans-serif;&quot;&gt;&lt;br&gt;&lt;/span&gt;&lt;/div&gt;&lt;/div&gt;" style="whiteSpace=wrap;html=1;rounded=1;strokeWidth=0;labelBackgroundColor=none;fontSize=18;align=left;fillColor=#f8cecc;strokeColor=#b85450;" parent="1" vertex="1">
          <mxGeometry x="1160" y="580" width="394" height="115" as="geometry" />
        </mxCell>
        <mxCell id="zM4QcKesal0ujREZK3LC-69" value="&lt;div style=&quot;&quot;&gt;&lt;div style=&quot;&quot;&gt;&lt;span style=&quot;font-family: system-ui, ui-sans-serif, -apple-system, BlinkMacSystemFont, sans-serif, Inter, NotoSansHans; letter-spacing: 0.02em; text-wrap-mode: nowrap;&quot;&gt;&lt;font&gt;&amp;nbsp; &amp;nbsp;Критический риск&lt;/font&gt;&lt;/span&gt;&lt;/div&gt;&lt;div style=&quot;white-space-collapse: preserve-breaks;&quot;&gt;&lt;font style=&quot;&quot;&gt;&lt;span style=&quot;font-family: system-ui, ui-sans-serif, -apple-system, BlinkMacSystemFont, sans-serif, Inter, NotoSansHans; font-size: 14px; letter-spacing: -0.28px; white-space: nowrap;&quot;&gt;&lt;span style=&quot;white-space: pre;&quot;&gt;&#x9;&lt;/span&gt;- М&lt;/span&gt;&lt;span style=&quot;font-family: system-ui, ui-sans-serif, -apple-system, BlinkMacSystemFont, sans-serif, Inter, NotoSansHans; font-size: 14px; letter-spacing: -0.28px; white-space: nowrap;&quot;&gt;ожет привести к потере контроля над системой,&lt;br&gt;&lt;span style=&quot;white-space: pre;&quot;&gt;&#x9;&lt;/span&gt;&amp;nbsp;несанкционированному доступу и &lt;br&gt;&lt;span style=&quot;white-space: pre;&quot;&gt;&#x9;&lt;/span&gt;полному нарушению целостности данных&lt;/span&gt;&lt;span style=&quot;font-family: system-ui, ui-sans-serif, -apple-system, BlinkMacSystemFont, sans-serif, Inter, NotoSansHans; font-size: 14px; letter-spacing: -0.28px; white-space: nowrap;&quot;&gt;&amp;nbsp;&lt;/span&gt;&lt;span style=&quot;font-family: monospace; font-size: 0px; white-space: nowrap;&quot;&gt;%3CmxGraphModel%3E%3Croot%3E%3CmxCell%20id%3D%220%22%2F%3E%3CmxCell%20id%3D%221%22%20parent%3D%220%22%2F%3E%3CmxCell%20id%3D%222%22%20value%3D%22%26lt%3Bdiv%20style%3D%26quot%3B%26quot%3B%26gt%3B%26lt%3Bdiv%20style%3D%26quot%3B%26quot%3B%26gt%3B%26lt%3Bspan%20style%3D%26quot%3Bfont-family%3A%20system-ui%2C%20ui-sans-serif%2C%20-apple-system%2C%20BlinkMacSystemFont%2C%20sans-serif%2C%20Inter%2C%20NotoSansHans%3B%20letter-spacing%3A%200.02em%3B%20text-wrap-mode%3A%20nowrap%3B%20color%3A%20light-dark(rgb(0%2C%200%2C%200)%2C%20rgb(255%2C%20255%2C%20255))%3B%26quot%3B%26gt%3B%26amp%3Bnbsp%3B%20%26amp%3Bnbsp%3B%D0%9A%D1%80%D0%B8%D1%82%D0%B8%D1%87%D0%B5%D1%81%D0%BA%D0%B8%D0%B9%20%D1%80%D0%B8%D1%81%D0%BA%26lt%3B%2Fspan%26gt%3B%26lt%3B%2Fdiv%26gt%3B%26lt%3Bdiv%20style%3D%26quot%3Bcolor%3A%20light-dark(rgb(0%2C%200%2C%200)%2C%20rgb(255%2C%20255%2C%20255))%3B%20white-space-collapse%3A%20preserve-breaks%3B%26quot%3B%26gt%3B%26lt%3Bspan%20style%3D%26quot%3Bfont-size%3A%2014px%3B%20font-family%3A%20%26amp%3Bquot%3BYS%20Text%26amp%3Bquot%3B%2C%20sans-serif%3B%20color%3A%20light-dark(rgb(0%2C%200%2C%200)%2C%20rgb(255%2C%20255%2C%20255))%3B%26quot%3B%26gt%3B%26lt%3Bspan%20style%3D%26quot%3Bwhite-space%3A%20pre%3B%26quot%3B%26gt%3B%26%239%3B%26lt%3B%2Fspan%26gt%3B-%20%D0%9D%D0%B0%D1%80%D1%83%D1%88%D0%B5%D0%BD%D0%B8%D0%B5%20%D0%B8%20%D0%B1%D0%BB%D0%BE%D0%BA%D0%B8%D1%80%D0%BE%D0%B2%D0%BA%D0%B0%20%D0%B2%D0%BD%D1%83%D1%82%D1%80%D0%B5%D0%BD%D0%BD%D0%B8%D1%85%20%26lt%3Bspan%20style%3D%26quot%3Bwhite-space%3A%20pre%3B%26quot%3B%26gt%3B%26%239%3B%26lt%3B%2Fspan%26gt%3B%D0%BF%D1%80%D0%BE%D1%86%D0%B5%D1%81%D1%81%D0%BE%D0%B2%26lt%3Bbr%26gt%3B%26lt%3Bspan%20style%3D%26quot%3Bwhite-space%3A%20pre%3B%26quot%3B%26gt%3B%26%239%3B%26lt%3B%2Fspan%26gt%3B-%20%D0%91%D0%BB%D0%BE%D0%BA%D0%B8%D1%80%D0%BE%D0%B2%D0%BA%D0%B0%20%D0%B1%D0%B8%D0%B7%D0%BD%D0%B5%D1%81-%D0%BF%D1%80%D0%BE%D1%86%D0%B5%D1%81%D1%81%D0%BE%D0%B2%26lt%3Bbr%26gt%3B%26lt%3Bspan%20style%3D%26quot%3Bwhite-space%3A%20pre%3B%26quot%3B%26gt%3B%26%239%3B%26lt%3B%2Fspan%26gt%3B-%20%D0%92%D0%BE%D0%B7%D0%BC%D0%BE%D0%B6%D0%BD%D1%8B%D0%B5%20%D1%8E%D1%80%D0%B8%D0%B4%D0%B8%D1%87%D0%B5%D1%81%D0%BA%D0%B8%D0%B5%20%D0%BF%D0%BE%D1%81%D0%BB%D0%B5%D0%B4%D1%81%D1%82%D0%B2%D0%B8%D1%8F%26lt%3Bbr%26gt%3B%26lt%3B%2Fspan%26gt%3B%26lt%3B%2Fdiv%26gt%3B%26lt%3B%2Fdiv%26gt%3B%22%20style%3D%22whiteSpace%3Dwrap%3Bhtml%3D1%3Brounded%3D1%3BstrokeWidth%3D0%3BlabelBackgroundColor%3Dnone%3BfontSize%3D18%3Balign%3Dleft%3BfillColor%3D%23f8cecc%3BstrokeColor%3D%23b85450%3B%22%20vertex%3D%221%22%20parent%3D%221%22%3E%3CmxGeometry%20x%3D%221090%22%20y%3D%22230%22%20width%3D%22310%22%20height%3D%22140%22%20as%3D%22geometry%22%2F%3E%3C%2FmxCell%3E%3C%2Froot%3E%3C%2FmxGraphModel%3E&amp;nbsp;&lt;/span&gt;&lt;/font&gt;&lt;/div&gt;&lt;/div&gt;" style="whiteSpace=wrap;html=1;rounded=1;strokeWidth=0;labelBackgroundColor=none;fontSize=18;align=left;fillColor=#f8cecc;strokeColor=#b85450;fontColor=default;" parent="1" vertex="1">
          <mxGeometry x="1160" y="705" width="394" height="95" as="geometry" />
        </mxCell>
        <mxCell id="zM4QcKesal0ujREZK3LC-70" value="&lt;font style=&quot;&quot;&gt;&lt;span style=&quot;font-family: system-ui, ui-sans-serif, -apple-system, BlinkMacSystemFont, sans-serif, Inter, NotoSansHans; letter-spacing: -0.28px; text-wrap-mode: nowrap;&quot;&gt;&lt;font style=&quot;&quot;&gt;&amp;nbsp; &amp;nbsp;Значительно&lt;br&gt;&lt;/font&gt;&lt;/span&gt;&lt;span style=&quot;font-family: system-ui, ui-sans-serif, -apple-system, BlinkMacSystemFont, sans-serif, Inter, NotoSansHans; font-size: 14px; letter-spacing: -0.28px; text-wrap-mode: nowrap;&quot;&gt;&lt;span style=&quot;white-space: pre;&quot;&gt;&#x9;&lt;/span&gt;&lt;/span&gt;&lt;/font&gt;&lt;span style=&quot;font-family: system-ui, ui-sans-serif, -apple-system, BlinkMacSystemFont, sans-serif, Inter, NotoSansHans; font-size: 14px; letter-spacing: -0.28px; text-wrap-mode: nowrap;&quot;&gt;Устаревшие учетные данные или доступы могут быть &lt;br&gt;&lt;span style=&quot;white-space: pre;&quot;&gt;&#x9;&lt;/span&gt;использованы злоумышленниками для&amp;nbsp;&lt;br&gt;&lt;span style=&quot;white-space: pre;&quot;&gt;&#x9;&lt;/span&gt;проникновения в систему и/или изменения данных&lt;/span&gt;" style="whiteSpace=wrap;html=1;rounded=1;strokeWidth=0;labelBackgroundColor=none;textShadow=0;align=left;fontSize=18;strokeColor=#B09500;fillColor=#e3c800;fontColor=default;" parent="1" vertex="1">
          <mxGeometry x="1160" y="910" width="400" height="100" as="geometry" />
        </mxCell>
        <mxCell id="zM4QcKesal0ujREZK3LC-71" value="&lt;span&gt;&lt;font&gt;&lt;font style=&quot;&quot;&gt;&lt;span style=&quot;font-family: system-ui, ui-sans-serif, -apple-system, BlinkMacSystemFont, sans-serif, Inter, NotoSansHans; letter-spacing: -0.28px; text-wrap-mode: nowrap;&quot;&gt;&lt;font style=&quot;&quot;&gt;&amp;nbsp; &amp;nbsp;Значительно&lt;br&gt;&lt;/font&gt;&lt;/span&gt;&lt;span style=&quot;font-family: system-ui, ui-sans-serif, -apple-system, BlinkMacSystemFont, sans-serif, Inter, NotoSansHans; font-size: 14px; letter-spacing: -0.28px; text-wrap-mode: nowrap;&quot;&gt;&lt;span style=&quot;white-space: pre;&quot;&gt;&#x9;&lt;/span&gt;-&amp;nbsp;&lt;/span&gt;&lt;/font&gt;&lt;/font&gt;&lt;/span&gt;&lt;span style=&quot;font-family: system-ui, ui-sans-serif, -apple-system, BlinkMacSystemFont, sans-serif, Inter, NotoSansHans; font-size: 14px; letter-spacing: -0.28px; text-wrap-mode: nowrap;&quot;&gt;Ошибки в настройках доступа,&lt;br&gt;&lt;span style=&quot;white-space: pre;&quot;&gt;&#x9;&lt;/span&gt;- С&lt;/span&gt;&lt;span style=&quot;font-family: system-ui, ui-sans-serif, -apple-system, BlinkMacSystemFont, sans-serif, Inter, NotoSansHans; font-size: 14px; letter-spacing: -0.28px; text-wrap-mode: nowrap;&quot;&gt;оздают уязвимости&lt;/span&gt;&lt;span style=&quot;font-family: system-ui, ui-sans-serif, -apple-system, BlinkMacSystemFont, sans-serif, Inter, NotoSansHans; font-size: 14px; letter-spacing: -0.28px; text-wrap-mode: nowrap;&quot;&gt;&amp;nbsp;безопасности.&lt;/span&gt;" style="whiteSpace=wrap;html=1;rounded=1;strokeWidth=0;labelBackgroundColor=none;textShadow=0;align=left;fontSize=18;strokeColor=#B09500;fillColor=#e3c800;fontColor=default;" parent="1" vertex="1">
          <mxGeometry x="1160" y="810" width="400" height="90" as="geometry" />
        </mxCell>
      </root>
    </mxGraphModel>
  </diagram>
</mxfile>
